<mxfile host="app.diagrams.net" modified="2023-09-12T18:29:24.563Z" agent="Mozilla/5.0 (Windows NT 10.0; Win64; x64) AppleWebKit/537.36 (KHTML, like Gecko) Chrome/116.0.0.0 Safari/537.36" etag="kNiLmS8RmB9hb8aFwFj7" version="21.7.4" type="device">
  <diagram name="Página-1" id="WaIed0l1QU56m08_m2mu">
    <mxGraphModel dx="926" dy="495" grid="1" gridSize="10" guides="1" tooltips="1" connect="1" arrows="1" fold="1" page="1" pageScale="1" pageWidth="827" pageHeight="1169" math="0" shadow="0">
      <root>
        <mxCell id="0" />
        <mxCell id="1" parent="0" />
        <mxCell id="XOwKEEIUK-BKNomthdIa-1" value="Livro" style="swimlane;childLayout=stackLayout;horizontal=1;startSize=50;horizontalStack=0;rounded=1;fontSize=14;fontStyle=0;strokeWidth=2;resizeParent=0;resizeLast=1;shadow=0;dashed=0;align=center;arcSize=4;whiteSpace=wrap;html=1;" vertex="1" parent="1">
          <mxGeometry x="610" y="525" width="160" height="120" as="geometry" />
        </mxCell>
        <mxCell id="XOwKEEIUK-BKNomthdIa-2" value="- nome&lt;br&gt;- autor&lt;br&gt;- ISBN&lt;br&gt;- disponibilidade" style="align=left;strokeColor=none;fillColor=none;spacingLeft=4;fontSize=12;verticalAlign=top;resizable=0;rotatable=0;part=1;html=1;" vertex="1" parent="XOwKEEIUK-BKNomthdIa-1">
          <mxGeometry y="50" width="160" height="70" as="geometry" />
        </mxCell>
        <mxCell id="XOwKEEIUK-BKNomthdIa-3" value="Leitor" style="swimlane;childLayout=stackLayout;horizontal=1;startSize=50;horizontalStack=0;rounded=1;fontSize=14;fontStyle=0;strokeWidth=2;resizeParent=0;resizeLast=1;shadow=0;dashed=0;align=center;arcSize=4;whiteSpace=wrap;html=1;" vertex="1" parent="1">
          <mxGeometry x="50" y="510" width="160" height="120" as="geometry" />
        </mxCell>
        <mxCell id="XOwKEEIUK-BKNomthdIa-4" value="- nome" style="align=left;strokeColor=none;fillColor=none;spacingLeft=4;fontSize=12;verticalAlign=top;resizable=0;rotatable=0;part=1;html=1;" vertex="1" parent="XOwKEEIUK-BKNomthdIa-3">
          <mxGeometry y="50" width="160" height="70" as="geometry" />
        </mxCell>
        <mxCell id="XOwKEEIUK-BKNomthdIa-5" value="Empréstimo" style="swimlane;childLayout=stackLayout;horizontal=1;startSize=50;horizontalStack=0;rounded=1;fontSize=14;fontStyle=0;strokeWidth=2;resizeParent=0;resizeLast=1;shadow=0;dashed=0;align=center;arcSize=4;whiteSpace=wrap;html=1;" vertex="1" parent="1">
          <mxGeometry x="340" y="470" width="160" height="120" as="geometry" />
        </mxCell>
        <mxCell id="XOwKEEIUK-BKNomthdIa-6" value="- id&lt;br&gt;- idLeitor&lt;br&gt;- idLivro" style="align=left;strokeColor=none;fillColor=none;spacingLeft=4;fontSize=12;verticalAlign=top;resizable=0;rotatable=0;part=1;html=1;" vertex="1" parent="XOwKEEIUK-BKNomthdIa-5">
          <mxGeometry y="50" width="160" height="70" as="geometry" />
        </mxCell>
        <mxCell id="XOwKEEIUK-BKNomthdIa-7" value="Devolução" style="swimlane;childLayout=stackLayout;horizontal=1;startSize=50;horizontalStack=0;rounded=1;fontSize=14;fontStyle=0;strokeWidth=2;resizeParent=0;resizeLast=1;shadow=0;dashed=0;align=center;arcSize=4;whiteSpace=wrap;html=1;" vertex="1" parent="1">
          <mxGeometry x="340" y="610" width="160" height="120" as="geometry" />
        </mxCell>
        <mxCell id="XOwKEEIUK-BKNomthdIa-8" value="- id&lt;br&gt;- idLivro" style="align=left;strokeColor=none;fillColor=none;spacingLeft=4;fontSize=12;verticalAlign=top;resizable=0;rotatable=0;part=1;html=1;" vertex="1" parent="XOwKEEIUK-BKNomthdIa-7">
          <mxGeometry y="50" width="160" height="70" as="geometry" />
        </mxCell>
        <mxCell id="XOwKEEIUK-BKNomthdIa-9" value="Histórico" style="swimlane;childLayout=stackLayout;horizontal=1;startSize=50;horizontalStack=0;rounded=1;fontSize=14;fontStyle=0;strokeWidth=2;resizeParent=0;resizeLast=1;shadow=0;dashed=0;align=center;arcSize=4;whiteSpace=wrap;html=1;" vertex="1" parent="1">
          <mxGeometry x="170" y="760" width="150" height="190" as="geometry">
            <mxRectangle x="60" y="230" width="90" height="50" as="alternateBounds" />
          </mxGeometry>
        </mxCell>
        <mxCell id="XOwKEEIUK-BKNomthdIa-12" value="" style="line;strokeWidth=1;rotatable=0;dashed=0;labelPosition=right;align=left;verticalAlign=middle;spacingTop=0;spacingLeft=6;points=[];portConstraint=eastwest;" vertex="1" parent="XOwKEEIUK-BKNomthdIa-9">
          <mxGeometry y="50" width="150" as="geometry" />
        </mxCell>
        <mxCell id="XOwKEEIUK-BKNomthdIa-10" value="- status&lt;br&gt;- idLivro&lt;br&gt;- idLeitor&lt;br&gt;- data&lt;br&gt;- hora" style="align=left;strokeColor=none;fillColor=none;spacingLeft=4;fontSize=12;verticalAlign=top;resizable=0;rotatable=0;part=1;html=1;" vertex="1" parent="XOwKEEIUK-BKNomthdIa-9">
          <mxGeometry y="50" width="150" height="140" as="geometry" />
        </mxCell>
        <mxCell id="XOwKEEIUK-BKNomthdIa-20" style="edgeStyle=orthogonalEdgeStyle;rounded=0;orthogonalLoop=1;jettySize=auto;html=1;exitX=1;exitY=0.25;exitDx=0;exitDy=0;entryX=0;entryY=0.25;entryDx=0;entryDy=0;" edge="1" parent="1" source="XOwKEEIUK-BKNomthdIa-4" target="XOwKEEIUK-BKNomthdIa-6">
          <mxGeometry relative="1" as="geometry" />
        </mxCell>
        <mxCell id="XOwKEEIUK-BKNomthdIa-24" value="n" style="edgeLabel;html=1;align=center;verticalAlign=middle;resizable=0;points=[];" vertex="1" connectable="0" parent="XOwKEEIUK-BKNomthdIa-20">
          <mxGeometry x="0.6846" relative="1" as="geometry">
            <mxPoint y="1" as="offset" />
          </mxGeometry>
        </mxCell>
        <mxCell id="XOwKEEIUK-BKNomthdIa-26" value="n" style="edgeLabel;html=1;align=center;verticalAlign=middle;resizable=0;points=[];" vertex="1" connectable="0" parent="XOwKEEIUK-BKNomthdIa-20">
          <mxGeometry x="-0.8282" y="-1" relative="1" as="geometry">
            <mxPoint as="offset" />
          </mxGeometry>
        </mxCell>
        <mxCell id="XOwKEEIUK-BKNomthdIa-22" style="edgeStyle=orthogonalEdgeStyle;rounded=0;orthogonalLoop=1;jettySize=auto;html=1;exitX=0;exitY=0.5;exitDx=0;exitDy=0;entryX=1;entryY=0.5;entryDx=0;entryDy=0;" edge="1" parent="1" source="XOwKEEIUK-BKNomthdIa-2" target="XOwKEEIUK-BKNomthdIa-6">
          <mxGeometry relative="1" as="geometry" />
        </mxCell>
        <mxCell id="XOwKEEIUK-BKNomthdIa-27" value="1" style="edgeLabel;html=1;align=center;verticalAlign=middle;resizable=0;points=[];" vertex="1" connectable="0" parent="XOwKEEIUK-BKNomthdIa-22">
          <mxGeometry x="-0.6741" y="-1" relative="1" as="geometry">
            <mxPoint as="offset" />
          </mxGeometry>
        </mxCell>
        <mxCell id="XOwKEEIUK-BKNomthdIa-28" value="1" style="edgeLabel;html=1;align=center;verticalAlign=middle;resizable=0;points=[];" vertex="1" connectable="0" parent="XOwKEEIUK-BKNomthdIa-22">
          <mxGeometry x="0.5111" y="1" relative="1" as="geometry">
            <mxPoint as="offset" />
          </mxGeometry>
        </mxCell>
        <mxCell id="XOwKEEIUK-BKNomthdIa-29" style="edgeStyle=orthogonalEdgeStyle;rounded=0;orthogonalLoop=1;jettySize=auto;html=1;exitX=1;exitY=0.5;exitDx=0;exitDy=0;entryX=0;entryY=0.25;entryDx=0;entryDy=0;" edge="1" parent="1" source="XOwKEEIUK-BKNomthdIa-4" target="XOwKEEIUK-BKNomthdIa-8">
          <mxGeometry relative="1" as="geometry" />
        </mxCell>
        <mxCell id="XOwKEEIUK-BKNomthdIa-31" value="n" style="edgeLabel;html=1;align=center;verticalAlign=middle;resizable=0;points=[];" vertex="1" connectable="0" parent="XOwKEEIUK-BKNomthdIa-29">
          <mxGeometry x="-0.8462" y="2" relative="1" as="geometry">
            <mxPoint as="offset" />
          </mxGeometry>
        </mxCell>
        <mxCell id="XOwKEEIUK-BKNomthdIa-32" value="n" style="edgeLabel;html=1;align=center;verticalAlign=middle;resizable=0;points=[];" vertex="1" connectable="0" parent="XOwKEEIUK-BKNomthdIa-29">
          <mxGeometry x="0.8316" y="-1" relative="1" as="geometry">
            <mxPoint as="offset" />
          </mxGeometry>
        </mxCell>
        <mxCell id="XOwKEEIUK-BKNomthdIa-30" style="edgeStyle=orthogonalEdgeStyle;rounded=0;orthogonalLoop=1;jettySize=auto;html=1;exitX=0;exitY=0.75;exitDx=0;exitDy=0;entryX=1;entryY=0.5;entryDx=0;entryDy=0;" edge="1" parent="1" source="XOwKEEIUK-BKNomthdIa-2" target="XOwKEEIUK-BKNomthdIa-8">
          <mxGeometry relative="1" as="geometry" />
        </mxCell>
        <mxCell id="XOwKEEIUK-BKNomthdIa-33" value="1" style="edgeLabel;html=1;align=center;verticalAlign=middle;resizable=0;points=[];" vertex="1" connectable="0" parent="XOwKEEIUK-BKNomthdIa-30">
          <mxGeometry x="0.8438" relative="1" as="geometry">
            <mxPoint as="offset" />
          </mxGeometry>
        </mxCell>
        <mxCell id="XOwKEEIUK-BKNomthdIa-34" value="1" style="edgeLabel;html=1;align=center;verticalAlign=middle;resizable=0;points=[];" vertex="1" connectable="0" parent="XOwKEEIUK-BKNomthdIa-30">
          <mxGeometry x="-0.7853" y="-2" relative="1" as="geometry">
            <mxPoint as="offset" />
          </mxGeometry>
        </mxCell>
        <mxCell id="XOwKEEIUK-BKNomthdIa-36" style="edgeStyle=orthogonalEdgeStyle;rounded=0;orthogonalLoop=1;jettySize=auto;html=1;exitX=0;exitY=0.5;exitDx=0;exitDy=0;entryX=0.75;entryY=0;entryDx=0;entryDy=0;" edge="1" parent="1" source="XOwKEEIUK-BKNomthdIa-8" target="XOwKEEIUK-BKNomthdIa-9">
          <mxGeometry relative="1" as="geometry" />
        </mxCell>
        <mxCell id="XOwKEEIUK-BKNomthdIa-43" value="1" style="edgeLabel;html=1;align=center;verticalAlign=middle;resizable=0;points=[];" vertex="1" connectable="0" parent="XOwKEEIUK-BKNomthdIa-36">
          <mxGeometry x="0.7991" relative="1" as="geometry">
            <mxPoint as="offset" />
          </mxGeometry>
        </mxCell>
        <mxCell id="XOwKEEIUK-BKNomthdIa-46" value="1" style="edgeLabel;html=1;align=center;verticalAlign=middle;resizable=0;points=[];" vertex="1" connectable="0" parent="XOwKEEIUK-BKNomthdIa-36">
          <mxGeometry x="-0.8682" y="1" relative="1" as="geometry">
            <mxPoint as="offset" />
          </mxGeometry>
        </mxCell>
        <mxCell id="XOwKEEIUK-BKNomthdIa-37" style="edgeStyle=orthogonalEdgeStyle;rounded=0;orthogonalLoop=1;jettySize=auto;html=1;exitX=0;exitY=0.75;exitDx=0;exitDy=0;entryX=0.5;entryY=0;entryDx=0;entryDy=0;jumpStyle=arc;" edge="1" parent="1" source="XOwKEEIUK-BKNomthdIa-6" target="XOwKEEIUK-BKNomthdIa-9">
          <mxGeometry relative="1" as="geometry" />
        </mxCell>
        <mxCell id="XOwKEEIUK-BKNomthdIa-44" value="1" style="edgeLabel;html=1;align=center;verticalAlign=middle;resizable=0;points=[];" vertex="1" connectable="0" parent="XOwKEEIUK-BKNomthdIa-37">
          <mxGeometry x="0.8972" y="4" relative="1" as="geometry">
            <mxPoint as="offset" />
          </mxGeometry>
        </mxCell>
        <mxCell id="XOwKEEIUK-BKNomthdIa-45" value="1" style="edgeLabel;html=1;align=center;verticalAlign=middle;resizable=0;points=[];" vertex="1" connectable="0" parent="XOwKEEIUK-BKNomthdIa-37">
          <mxGeometry x="-0.9128" y="2" relative="1" as="geometry">
            <mxPoint as="offset" />
          </mxGeometry>
        </mxCell>
        <mxCell id="XOwKEEIUK-BKNomthdIa-38" style="edgeStyle=orthogonalEdgeStyle;rounded=0;orthogonalLoop=1;jettySize=auto;html=1;exitX=0.25;exitY=1;exitDx=0;exitDy=0;entryX=1;entryY=0.25;entryDx=0;entryDy=0;" edge="1" parent="1" source="XOwKEEIUK-BKNomthdIa-2" target="XOwKEEIUK-BKNomthdIa-10">
          <mxGeometry relative="1" as="geometry" />
        </mxCell>
        <mxCell id="XOwKEEIUK-BKNomthdIa-42" value="1" style="edgeLabel;html=1;align=center;verticalAlign=middle;resizable=0;points=[];" vertex="1" connectable="0" parent="XOwKEEIUK-BKNomthdIa-38">
          <mxGeometry x="0.9133" y="-1" relative="1" as="geometry">
            <mxPoint x="-1" as="offset" />
          </mxGeometry>
        </mxCell>
        <mxCell id="XOwKEEIUK-BKNomthdIa-47" value="1" style="edgeLabel;html=1;align=center;verticalAlign=middle;resizable=0;points=[];" vertex="1" connectable="0" parent="XOwKEEIUK-BKNomthdIa-38">
          <mxGeometry x="-0.9459" y="-3" relative="1" as="geometry">
            <mxPoint as="offset" />
          </mxGeometry>
        </mxCell>
        <mxCell id="XOwKEEIUK-BKNomthdIa-39" style="edgeStyle=orthogonalEdgeStyle;rounded=0;orthogonalLoop=1;jettySize=auto;html=1;exitX=0.25;exitY=1;exitDx=0;exitDy=0;entryX=0;entryY=0.25;entryDx=0;entryDy=0;" edge="1" parent="1" source="XOwKEEIUK-BKNomthdIa-4" target="XOwKEEIUK-BKNomthdIa-10">
          <mxGeometry relative="1" as="geometry" />
        </mxCell>
        <mxCell id="XOwKEEIUK-BKNomthdIa-41" value="1" style="edgeLabel;html=1;align=center;verticalAlign=middle;resizable=0;points=[];" vertex="1" connectable="0" parent="XOwKEEIUK-BKNomthdIa-39">
          <mxGeometry x="0.9035" y="4" relative="1" as="geometry">
            <mxPoint x="-1" as="offset" />
          </mxGeometry>
        </mxCell>
        <mxCell id="XOwKEEIUK-BKNomthdIa-48" value="1" style="edgeLabel;html=1;align=center;verticalAlign=middle;resizable=0;points=[];" vertex="1" connectable="0" parent="XOwKEEIUK-BKNomthdIa-39">
          <mxGeometry x="-0.9431" y="-1" relative="1" as="geometry">
            <mxPoint y="-1" as="offset" />
          </mxGeometry>
        </mxCell>
      </root>
    </mxGraphModel>
  </diagram>
</mxfile>
